P3
83 50
255
255 255 255
255 255 255
255 255 255
255 255 255
255 255 255
255 255 255
255 255 255
255 255 255
255 255 255
255 255 255
255 255 255
255 255 255
255 255 255
255 255 255
255 255 255
255 255 255
255 255 255
255 255 255
255 255 255
255 255 255
255 255 255
255 255 255
255 255 255
255 255 255
255 255 255
255 255 255
255 255 255
255 255 255
255 255 255
255 255 255
229 229 229
190 190 190
152 152 152
118 118 118
94 94 94
73 73 73
47 47 47
33 33 33
17 17 17
17 17 17
5 5 5
0 0 0
5 5 5
17 17 17
17 17 17
33 33 33
48 48 48
73 73 73
95 95 95
119 119 119
153 153 153
191 191 191
230 230 230
255 255 255
255 255 255
255 255 255
255 255 255
255 255 255
255 255 255
255 255 255
255 255 255
255 255 255
255 255 255
255 255 255
255 255 255
255 255 255
255 255 255
255 255 255
255 255 255
255 255 255
255 255 255
255 255 255
255 255 255
255 255 255
255 255 255
255 255 255
255 255 255
255 255 255
255 255 255
255 255 255
255 255 255
255 255 255
255 255 255
255 255 255
255 255 255
255 255 255
255 255 255
255 255 255
255 255 255
255 255 255
255 255 255
255 255 255
255 255 255
255 255 255
255 255 255
255 255 255
255 255 255
255 255 255
255 255 255
255 255 255
255 255 255
255 255 255
255 255 255
255 255 255
255 255 255
255 255 255
255 255 255
255 255 255
232 232 232
176 176 176
120 120 120
64 64 64
14 14 14
0 0 0
0 0 0
0 0 0
0 0 0
0 0 0
0 0 0
0 0 0
0 0 0
0 0 0
0 0 0
0 0 0
0 0 0
0 0 0
0 0 0
0 0 0
0 0 0
0 0 0
0 0 0
0 0 0
0 0 0
0 0 0
0 0 0
0 0 0
15 15 15
65 65 65
122 122 122
177 177 177
233 233 233
255 255 255
255 255 255
255 255 255
255 255 255
255 255 255
255 255 255
255 255 255
255 255 255
255 255 255
255 255 255
255 255 255
255 255 255
255 255 255
255 255 255
255 255 255
255 255 255
255 255 255
255 255 255
255 255 255
255 255 255
255 255 255
255 255 255
255 255 255
255 255 255
255 255 255
255 255 255
255 255 255
255 255 255
255 255 255
255 255 255
255 255 255
255 255 255
255 255 255
255 255 255
255 255 255
255 255 255
255 255 255
255 255 255
255 255 255
255 255 255
255 255 255
255 255 255
255 255 255
255 255 255
255 255 255
255 255 255
252 252 252
193 193 193
121 121 121
49 49 49
1 1 1
0 0 0
0 0 0
0 0 0
0 0 0
0 0 0
0 3 5
0 10 20
0 18 35
0 22 45
0 27 54
0 32 64
0 36 72
0 37 75
0 39 77
0 41 82
0 41 82
0 41 82
0 39 77
0 37 75
0 36 72
0 32 64
0 27 54
0 22 44
0 17 35
0 10 20
0 3 5
0 0 0
0 0 0
0 0 0
0 0 0
0 0 0
1 1 1
49 49 49
122 122 122
194 194 194
252 252 252
255 255 255
255 255 255
255 255 255
255 255 255
255 255 255
255 255 255
255 255 255
255 255 255
255 255 255
255 255 255
255 255 255
255 255 255
255 255 255
255 255 255
255 255 255
255 255 255
255 255 255
255 255 255
255 255 255
255 255 255
255 255 255
255 255 255
255 255 255
255 255 255
255 255 255
255 255 255
255 255 255
255 255 255
255 255 255
255 255 255
255 255 255
255 255 255
255 255 255
255 255 255
255 255 255
255 255 255
255 255 255
255 255 255
255 255 255
255 255 255
202 202 202
111 111 111
23 23 23
0 0 0
0 0 0
0 0 0
0 0 0
0 4 8
0 15 30
0 26 52
0 37 74
0 46 91
0 51 102
0 51 102
0 51 102
0 51 102
0 51 102
0 51 102
0 51 102
0 51 102
0 51 102
0 51 102
0 51 102
0 51 102
0 51 102
0 51 102
0 51 102
0 51 102
0 51 102
0 51 102
0 51 102
0 51 102
0 51 102
0 46 91
0 37 74
0 26 52
0 15 30
0 4 8
0 0 0
0 0 0
0 0 0
0 0 0
23 23 23
112 112 112
204 204 204
255 255 255
255 255 255
255 255 255
255 255 255
255 255 255
255 255 255
255 255 255
255 255 255
255 255 255
255 255 255
255 255 255
255 255 255
255 255 255
255 255 255
255 255 255
255 255 255
255 255 255
255 255 255
255 255 255
255 255 255
255 255 255
255 255 255
255 255 255
255 255 255
255 255 255
255 255 255
255 255 255
255 255 255
255 255 255
255 255 255
255 255 255
255 255 255
255 255 255
255 255 255
255 255 255
245 245 245
152 152 152
42 42 42
0 0 0
0 0 0
0 0 0
0 1 2
0 13 26
0 28 55
0 42 84
0 51 102
0 51 102
0 51 102
0 51 102
0 51 102
0 51 102
0 51 102
0 51 102
0 51 102
0 51 102
0 51 102
0 51 102
0 51 102
0 51 102
0 51 102
0 51 102
0 51 102
0 51 102
0 51 102
0 51 102
0 51 102
0 51 102
0 51 102
0 51 102
0 51 102
0 51 102
0 51 102
0 51 102
0 51 102
0 51 102
0 51 102
0 42 84
0 28 55
0 13 26
0 1 2
0 0 0
0 0 0
0 0 0
43 43 43
153 153 153
246 246 246
255 255 255
255 255 255
255 255 255
255 255 255
255 255 255
255 255 255
255 255 255
255 255 255
255 255 255
255 255 255
255 255 255
255 255 255
255 255 255
255 255 255
255 255 255
255 255 255
255 255 255
255 255 255
255 255 255
255 255 255
255 255 255
255 255 255
255 255 255
255 255 255
255 255 255
255 255 255
255 255 255
255 255 255
255 255 255
255 255 255
238 238 238
123 123 123
19 19 19
0 0 0
0 0 0
0 0 1
0 13 26
0 31 62
0 48 96
0 51 102
0 51 102
0 51 102
0 51 102
0 51 102
0 51 102
0 51 102
0 51 102
0 51 102
0 51 102
0 51 102
0 51 102
0 51 102
0 51 102
0 51 102
0 51 102
0 51 102
0 51 102
0 51 102
0 51 102
0 51 102
0 51 102
0 51 102
0 51 102
0 51 102
0 51 102
0 51 102
0 51 102
0 51 102
0 51 102
0 51 102
0 51 102
0 51 102
0 51 102
0 51 102
0 51 102
0 51 102
0 48 96
0 31 62
0 13 25
0 0 1
0 0 0
0 0 0
20 20 20
125 125 125
239 239 239
255 255 255
255 255 255
255 255 255
255 255 255
255 255 255
255 255 255
255 255 255
255 255 255
255 255 255
255 255 255
255 255 255
255 255 255
255 255 255
255 255 255
255 255 255
255 255 255
255 255 255
255 255 255
255 255 255
255 255 255
255 255 255
255 255 255
255 255 255
255 255 255
255 255 255
255 255 255
247 247 247
138 138 138
17 17 17
0 0 0
0 0 0
0 3 7
0 24 48
0 45 90
0 51 102
0 51 102
0 51 102
0 51 102
0 51 102
0 51 102
0 51 102
0 51 102
0 51 102
0 51 102
0 51 102
0 51 102
0 51 102
0 51 102
0 51 102
0 51 102
0 51 102
0 51 102
0 51 102
0 51 102
0 51 102
0 51 102
0 51 102
0 51 102
0 51 102
0 51 102
0 51 102
0 51 102
0 51 102
0 51 102
0 51 102
0 51 102
0 51 102
0 51 102
0 51 102
0 51 102
0 51 102
0 51 102
0 51 102
0 51 102
0 51 102
0 51 102
0 51 102
0 45 90
0 24 47
0 3 6
0 0 0
0 0 0
18 18 18
139 139 139
247 247 247
255 255 255
255 255 255
255 255 255
255 255 255
255 255 255
255 255 255
255 255 255
255 255 255
255 255 255
255 255 255
255 255 255
255 255 255
255 255 255
255 255 255
255 255 255
255 255 255
255 255 255
255 255 255
255 255 255
255 255 255
255 255 255
255 255 255
255 255 255
182 182 182
31 31 31
0 0 0
0 0 0
0 5 10
0 29 59
0 49 98
0 51 102
0 51 102
0 51 102
0 51 102
0 51 102
0 51 102
0 51 102
0 51 102
0 51 102
0 51 102
0 51 102
0 51 102
0 51 102
0 51 102
0 51 102
0 51 102
0 51 102
0 51 102
0 51 102
0 51 102
0 51 102
0 51 102
0 51 102
0 51 102
0 51 102
0 51 102
0 51 102
0 51 102
0 51 102
0 51 102
0 51 102
0 51 102
0 51 102
0 51 102
0 51 102
0 51 102
0 51 102
0 51 102
0 51 102
0 51 102
0 51 102
0 51 102
0 51 102
0 51 102
0 51 102
0 51 102
0 51 102
0 49 97
0 29 58
0 5 10
0 0 0
0 0 0
31 31 31
183 183 183
255 255 255
255 255 255
255 255 255
255 255 255
255 255 255
255 255 255
255 255 255
255 255 255
255 255 255
255 255 255
255 255 255
255 255 255
255 255 255
255 255 255
255 255 255
255 255 255
255 255 255
255 255 255
255 255 255
255 255 255
237 237 237
94 94 94
0 0 0
0 0 0
0 3 6
0 27 54
0 49 98
0 51 102
0 51 102
0 51 102
0 51 102
0 51 102
0 51 102
0 51 102
0 51 102
0 51 102
0 51 102
0 51 102
0 51 102
0 51 102
0 51 102
0 51 102
0 51 102
0 51 102
0 51 102
0 51 102
0 51 102
0 51 102
0 51 102
0 51 102
0 51 102
0 51 102
0 51 102
0 51 102
0 51 102
0 51 102
0 51 102
0 51 102
0 51 102
0 51 102
0 51 102
0 51 102
0 51 102
0 51 102
0 51 102
0 51 102
0 51 102
0 51 102
0 51 102
0 51 102
0 51 102
0 51 102
0 51 102
0 51 102
0 51 102
0 51 102
0 51 102
0 51 102
0 49 98
0 27 53
0 3 6
0 0 0
0 0 0
94 94 94
238 238 238
255 255 255
255 255 255
255 255 255
255 255 255
255 255 255
255 255 255
255 255 255
255 255 255
255 255 255
255 255 255
255 255 255
255 255 255
255 255 255
255 255 255
255 255 255
255 255 255
255 255 255
206 206 206
33 33 33
0 0 0
0 0 0
0 15 30
0 46 92
0 51 102
0 51 102
0 51 102
0 51 102
0 51 102
0 51 102
0 51 102
0 51 102
0 51 102
0 51 102
0 51 102
0 51 102
0 51 102
0 51 102
0 51 102
0 51 102
0 51 102
0 51 102
0 51 102
0 51 102
0 51 102
0 51 102
0 51 102
0 51 102
0 51 102
0 51 102
0 51 102
0 51 102
0 51 102
0 51 102
0 51 102
0 51 102
0 51 102
0 51 102
0 51 102
0 51 102
0 51 102
0 51 102
0 51 102
0 51 102
0 51 102
0 51 102
0 51 102
0 51 102
0 51 102
0 51 102
0 51 102
0 51 102
0 51 102
0 51 102
0 51 102
0 51 102
0 51 102
0 51 102
0 51 102
0 47 93
0 19 37
0 0 0
0 0 0
29 29 29
201 201 201
255 255 255
255 255 255
255 255 255
255 255 255
255 255 255
255 255 255
255 255 255
255 255 255
255 255 255
255 255 255
255 255 255
255 255 255
255 255 255
255 255 255
255 255 255
160 160 160
8 8 8
0 0 0
0 4 9
0 35 70
0 51 102
0 51 102
0 51 102
0 51 102
0 51 102
0 51 102
0 51 102
0 51 102
0 51 102
0 51 102
0 51 102
0 51 102
0 51 102
0 51 102
0 51 102
0 51 102
0 51 102
0 51 102
0 51 102
0 51 102
0 51 102
0 51 102
0 51 102
0 51 102
0 51 102
0 51 102
0 51 102
0 51 102
0 51 102
0 51 102
0 51 102
0 51 102
0 51 102
0 51 102
0 51 102
0 51 102
0 51 102
0 51 102
0 51 102
0 51 102
0 51 102
0 51 102
0 51 102
0 51 102
0 51 102
0 51 102
0 51 102
0 51 102
0 51 102
0 51 102
0 51 102
0 51 102
0 51 102
0 51 102
0 51 102
0 51 102
0 51 102
0 51 102
0 51 102
0 35 70
0 4 9
0 0 0
9 9 9
162 162 162
255 255 255
255 255 255
255 255 255
255 255 255
255 255 255
255 255 255
255 255 255
255 255 255
255 255 255
255 255 255
255 255 255
255 255 255
255 255 255
140 140 140
1 1 1
0 0 0
0 10 20
0 45 90
0 51 102
0 51 102
0 51 102
0 51 102
22 68 107
50 89 114
29 73 110
2 52 103
0 51 102
0 51 102
0 51 102
0 51 102
0 51 102
2 52 103
38 80 111
47 86 113
15 62 105
0 51 102
0 51 102
0 51 102
0 51 102
0 51 102
10 59 104
46 86 113
45 85 114
16 63 106
0 51 102
0 51 102
0 51 102
0 51 102
0 51 102
0 51 102
21 67 108
50 89 114
30 74 109
2 52 103
0 51 102
0 51 102
0 51 102
0 51 102
0 51 102
0 51 102
0 51 102
0 51 102
0 51 102
15 62 105
48 87 114
41 82 113
12 60 105
0 51 102
0 51 102
0 51 102
14 61 106
27 71 108
27 71 108
27 71 108
27 71 108
27 71 108
27 71 108
14 61 106
0 51 102
0 46 91
0 11 22
0 0 0
1 1 1
142 142 142
255 255 255
255 255 255
255 255 255
255 255 255
255 255 255
255 255 255
255 255 255
255 255 255
255 255 255
255 255 255
255 255 255
134 134 134
0 0 0
0 0 0
0 18 37
0 50 99
0 51 102
0 51 102
0 51 102
17 64 107
144 159 138
204 204 153
204 204 153
204 204 153
182 187 148
57 94 117
0 51 102
0 51 102
0 51 102
64 99 118
183 188 147
204 204 153
204 204 153
204 204 153
139 155 136
12 60 105
0 51 102
0 51 102
90 119 124
197 199 152
204 204 153
204 204 153
202 203 152
124 144 133
2 52 103
0 51 102
0 51 102
16 63 106
142 157 138
204 204 153
204 204 153
204 204 153
183 188 147
58 94 117
0 51 102
0 51 102
0 51 102
0 51 102
0 51 102
0 51 102
1 52 103
115 137 130
202 203 152
204 204 153
204 204 153
198 200 151
102 128 127
0 51 102
0 51 102
105 130 129
204 204 153
204 204 153
204 204 153
204 204 153
204 204 153
204 204 153
109 133 130
0 51 102
0 51 102
0 50 99
0 18 36
0 0 0
0 0 0
136 136 136
255 255 255
255 255 255
255 255 255
255 255 255
255 255 255
255 255 255
255 255 255
255 255 255
255 255 255
162 162 162
0 0 0
0 0 0
0 20 40
0 51 101
0 51 102
0 51 102
0 51 102
4 54 103
162 172 143
204 204 153
148 162 139
86 115 124
122 142 133
202 202 153
195 197 150
25 70 109
0 51 102
52 90 115
202 203 152
196 198 151
109 133 130
88 117 124
167 176 143
204 204 153
132 150 135
0 51 102
36 78 111
203 203 152
176 183 146
83 113 122
78 109 122
170 178 145
204 204 153
88 117 124
0 51 102
3 53 102
161 172 143
204 204 153
149 163 140
87 116 123
121 142 133
202 202 153
196 198 151
26 70 109
0 51 102
0 51 102
0 51 102
0 51 102
0 51 102
66 100 119
204 204 153
162 173 142
78 110 121
86 116 123
184 189 148
204 204 153
58 94 117
0 51 102
105 130 129
204 204 153
147 161 138
109 133 130
109 133 130
109 133 130
109 133 130
58 94 117
0 51 102
0 51 102
0 51 102
0 51 102
0 21 42
0 0 0
0 0 0
158 158 158
255 255 255
255 255 255
255 255 255
255 255 255
255 255 255
255 255 255
255 255 255
201 201 201
8 8 8
0 0 0
0 19 38
0 51 102
0 51 102
0 51 102
0 51 102
0 51 102
69 103 120
204 204 153
152 165 140
1 52 103
0 51 102
0 51 102
112 135 130
158 170 141
54 92 115
0 51 102
157 169 142
204 204 153
65 100 119
0 51 102
0 51 102
13 61 106
173 181 146
134 151 136
3 53 102
67 101 118
204 204 153
121 142 133
0 51 102
0 51 102
43 83 112
136 153 136
87 116 123
0 51 102
66 100 119
204 204 153
154 166 141
1 52 103
0 51 102
0 51 102
110 133 130
158 170 141
55 92 115
0 51 102
43 83 112
95 122 125
34 76 111
0 51 102
98 125 126
204 204 153
90 118 125
0 51 102
0 51 102
64 99 118
136 153 136
67 101 118
0 51 102
105 130 129
204 204 153
83 113 122
0 51 102
0 51 102
0 51 102
0 51 102
0 51 102
0 51 102
0 51 102
0 51 102
0 51 102
0 51 102
0 18 37
0 0 0
9 9 9
203 203 203
255 255 255
255 255 255
255 255 255
255 255 255
255 255 255
246 246 246
34 34 34
0 0 0
0 11 22
0 50 99
0 51 102
0 51 102
0 51 102
0 51 102
0 51 102
122 142 133
204 204 153
79 110 121
0 51 102
0 51 102
0 51 102
0 51 102
0 51 102
0 51 102
9 58 105
202 203 152
195 197 150
1 52 103
0 51 102
0 51 102
0 51 102
0 51 102
0 51 102
0 51 102
22 67 108
195 197 150
204 204 153
167 176 143
105 130 129
38 79 112
0 51 102
0 51 102
0 51 102
120 141 132
204 204 153
82 113 122
0 51 102
0 51 102
0 51 102
0 51 102
0 51 102
0 51 102
0 51 102
94 122 125
204 204 153
74 106 121
0 51 102
46 86 113
202 202 153
204 204 153
157 169 142
96 123 126
28 72 109
0 51 102
0 51 102
0 51 102
105 130 129
204 204 153
131 149 134
82 113 122
82 113 122
82 113 122
82 113 122
14 61 106
0 51 102
0 51 102
0 51 102
0 51 102
0 51 102
0 49 99
0 11 22
0 0 0
36 36 36
246 246 246
255 255 255
255 255 255
255 255 255
255 255 255
121 121 121
0 0 0
0 3 6
0 46 91
0 51 102
0 51 102
0 51 102
0 51 102
0 51 102
0 51 102
142 158 137
204 204 153
59 95 116
0 51 102
0 51 102
0 51 102
0 51 102
0 51 102
0 51 102
26 71 108
204 204 153
175 182 145
0 51 102
0 51 102
0 51 102
0 51 102
0 51 102
0 51 102
0 51 102
0 51 102
56 93 116
175 182 145
204 204 153
204 204 153
204 204 153
167 176 143
31 74 109
0 51 102
139 155 136
204 204 153
62 98 117
0 51 102
0 51 102
0 51 102
0 51 102
0 51 102
0 51 102
0 51 102
31 74 109
68 102 119
25 70 109
0 51 102
0 51 102
76 108 121
186 191 148
204 204 153
204 204 153
204 204 153
152 165 140
16 63 106
0 51 102
105 130 129
204 204 153
204 204 153
204 204 153
204 204 153
204 204 153
204 204 153
36 78 111
0 51 102
0 51 102
0 51 102
0 51 102
0 51 102
0 51 102
0 45 91
0 3 6
0 0 0
125 125 125
255 255 255
255 255 255
255 255 255
222 222 222
6 6 6
0 0 0
0 30 60
0 51 102
0 51 102
0 51 102
0 51 102
0 51 102
0 51 102
0 51 102
134 151 136
204 204 153
72 105 120
0 51 102
0 51 102
0 51 102
2 53 102
0 51 102
0 51 102
18 64 107
204 204 153
189 193 150
0 51 102
0 51 102
0 51 102
0 51 102
2 53 102
0 51 102
0 51 102
0 51 102
0 51 102
0 51 102
41 82 113
99 125 126
172 180 145
204 204 153
156 168 141
0 51 102
132 150 135
204 204 153
74 106 121
0 51 102
0 51 102
0 51 102
2 53 102
0 51 102
0 51 102
0 51 102
0 51 102
0 51 102
0 51 102
0 51 102
0 51 102
0 51 102
2 52 103
50 88 115
107 131 128
183 188 147
204 204 153
126 146 133
0 51 102
105 130 129
204 204 153
115 137 130
54 91 116
54 91 116
54 91 116
54 91 116
10 59 104
0 51 102
0 51 102
0 51 102
0 51 102
0 51 102
0 51 102
0 51 102
0 29 59
0 0 0
7 7 7
225 225 225
255 255 255
255 255 255
114 114 114
0 0 0
0 9 19
0 51 101
0 51 102
0 51 102
0 51 102
0 51 102
0 51 102
0 51 102
0 51 102
95 122 125
204 204 153
120 141 132
0 51 102
0 51 102
0 51 102
103 128 127
166 175 144
56 93 116
0 51 102
183 188 147
203 203 152
33 76 111
0 51 102
0 51 102
4 54 103
178 184 147
138 155 136
5 55 104
91 119 124
159 170 141
48 87 114
0 51 102
0 51 102
7 56 103
199 200 151
198 199 152
0 51 102
93 121 126
204 204 153
122 142 133
0 51 102
0 51 102
0 51 102
100 126 127
167 176 143
58 95 116
0 51 102
0 51 102
0 51 102
0 51 102
0 51 102
114 137 130
163 173 142
22 67 108
0 51 102
0 51 102
33 76 111
204 204 153
168 177 144
0 51 102
105 130 129
204 204 153
83 113 122
0 51 102
0 51 102
0 51 102
0 51 102
0 51 102
0 51 102
0 51 102
0 51 102
0 51 102
0 51 102
0 51 102
0 51 102
0 50 101
0 9 18
0 0 0
117 117 117
255 255 255
244 244 244
15 15 15
0 0 0
0 32 64
0 51 102
0 51 102
0 51 102
0 51 102
0 51 102
0 51 102
0 51 102
0 51 102
20 66 107
194 197 150
198 199 152
81 112 123
20 66 107
63 98 117
195 197 150
202 202 153
32 75 110
0 51 102
98 125 126
204 204 153
162 173 142
41 82 113
23 68 107
127 146 133
204 204 153
147 161 138
0 51 102
80 111 122
204 204 153
161 172 143
33 76 111
13 61 106
84 114 123
204 204 153
170 178 145
0 51 102
18 64 107
193 196 151
198 199 152
82 113 122
20 66 107
62 98 117
194 197 150
203 203 152
34 76 111
0 51 102
38 80 111
82 113 122
30 74 109
0 51 102
110 133 130
204 204 153
141 157 138
25 70 109
15 62 105
110 134 129
204 204 153
141 157 138
0 51 102
105 130 129
204 204 153
107 131 128
41 82 113
41 82 113
41 82 113
41 82 113
29 73 110
0 51 102
0 51 102
0 51 102
0 51 102
0 51 102
0 51 102
0 51 102
0 51 102
0 31 62
0 0 0
17 17 17
244 244 244
179 179 179
0 0 0
0 3 7
0 49 99
0 51 102
0 51 102
0 51 102
0 51 102
0 51 102
0 51 102
0 51 102
0 51 102
0 51 102
60 96 117
194 196 151
204 204 153
204 204 153
204 204 153
202 202 153
90 119 124
0 51 102
0 51 102
3 53 102
134 151 136
204 204 153
204 204 153
204 204 153
204 204 153
181 187 148
25 70 109
0 51 102
3 53 102
150 164 139
204 204 153
204 204 153
204 204 153
204 204 153
198 199 152
59 95 116
0 51 102
0 51 102
58 95 116
194 197 150
204 204 153
204 204 153
204 204 153
203 203 152
92 120 125
0 51 102
0 51 102
94 122 125
204 204 153
74 106 121
0 51 102
12 60 105
170 178 145
204 204 153
204 204 153
204 204 153
204 204 153
190 193 150
36 78 111
0 51 102
105 130 129
204 204 153
204 204 153
204 204 153
204 204 153
204 204 153
204 204 153
146 161 138
0 51 102
0 51 102
0 51 102
0 51 102
0 51 102
0 51 102
0 51 102
0 51 102
0 49 98
0 3 6
0 0 0
180 180 180
113 113 113
0 0 0
0 16 33
0 51 102
0 51 102
0 51 102
0 51 102
0 51 102
0 51 102
0 51 102
0 51 102
0 51 102
0 51 102
0 51 102
20 66 107
92 120 125
118 140 131
98 125 126
35 77 110
0 51 102
0 51 102
0 51 102
0 51 102
0 51 102
53 91 116
109 133 130
114 137 130
79 110 121
8 57 104
0 51 102
0 51 102
0 51 102
1 52 103
63 98 117
106 131 128
119 140 131
94 121 126
28 72 109
0 51 102
0 51 102
0 51 102
0 51 102
19 65 106
91 119 124
118 140 131
98 124 127
36 78 111
0 51 102
0 51 102
0 51 102
43 83 112
95 122 125
34 76 111
0 51 102
0 51 102
5 55 104
74 106 121
110 134 129
117 139 132
88 117 124
18 64 107
0 51 102
0 51 102
49 88 115
95 122 125
95 122 125
95 122 125
95 122 125
95 122 125
95 122 125
68 102 119
0 51 102
0 51 102
0 51 102
0 51 102
0 51 102
0 51 102
0 51 102
0 51 102
0 51 102
0 16 32
0 0 0
116 116 116
57 57 57
0 0 0
0 29 58
0 51 102
0 51 102
0 51 102
0 51 102
0 51 102
0 51 102
0 51 102
0 51 102
0 51 102
0 51 102
0 51 102
0 51 102
0 51 102
0 51 102
0 51 102
0 51 102
0 51 102
0 51 102
0 51 102
0 51 102
0 51 102
0 51 102
0 51 102
0 51 102
0 51 102
0 51 102
0 51 102
0 51 102
0 51 102
0 51 102
0 51 102
0 51 102
0 51 102
0 51 102
0 51 102
0 51 102
0 51 102
0 51 102
0 51 102
0 51 102
0 51 102
0 51 102
0 51 102
0 51 102
0 51 102
0 51 102
0 51 102
0 51 102
0 51 102
0 51 102
0 51 102
0 51 102
0 51 102
0 51 102
0 51 102
0 51 102
0 51 102
0 51 102
0 51 102
0 51 102
0 51 102
0 51 102
0 51 102
0 51 102
0 51 102
0 51 102
0 51 102
0 51 102
0 51 102
0 51 102
0 51 102
0 51 102
0 51 102
0 51 102
0 51 102
0 51 102
0 51 102
0 29 57
0 0 0
58 58 58
31 31 31
0 0 0
0 36 72
0 51 102
0 51 102
0 51 102
0 51 102
0 51 102
0 51 102
0 51 102
0 51 102
0 51 102
0 51 102
0 51 102
0 51 102
0 51 102
0 51 102
0 51 102
0 51 102
0 51 102
0 51 102
0 51 102
0 51 102
0 51 102
0 51 102
0 51 102
0 51 102
0 51 102
0 51 102
0 51 102
0 51 102
0 51 102
0 51 102
0 51 102
0 51 102
0 51 102
0 51 102
0 51 102
0 51 102
0 51 102
0 51 102
0 51 102
0 51 102
0 51 102
0 51 102
0 51 102
0 51 102
0 51 102
0 51 102
0 51 102
0 51 102
0 51 102
0 51 102
0 51 102
0 51 102
0 51 102
0 51 102
0 51 102
0 51 102
0 51 102
0 51 102
0 51 102
0 51 102
0 51 102
0 51 102
0 51 102
0 51 102
0 51 102
0 51 102
0 51 102
0 51 102
0 51 102
0 51 102
0 51 102
0 51 102
0 51 102
0 51 102
0 51 102
0 51 102
0 51 102
0 35 71
0 0 0
33 33 33
10 10 10
0 0 0
0 40 80
0 51 102
0 51 102
0 51 102
0 51 102
0 51 102
0 51 102
0 51 102
0 51 102
0 51 102
0 51 102
0 51 102
0 51 102
0 51 102
0 51 102
0 51 102
0 51 102
0 51 102
0 51 102
0 51 102
0 51 102
0 51 102
0 51 102
0 51 102
0 51 102
0 51 102
0 51 102
0 51 102
0 51 102
0 51 102
0 51 102
0 51 102
0 51 102
0 51 102
0 51 102
0 51 102
0 51 102
0 51 102
0 51 102
0 51 102
0 51 102
0 51 102
0 51 102
0 51 102
0 51 102
0 51 102
0 51 102
0 51 102
0 51 102
0 51 102
0 51 102
0 51 102
0 51 102
0 51 102
0 51 102
0 51 102
0 51 102
0 51 102
0 51 102
0 51 102
0 51 102
0 51 102
0 51 102
0 51 102
0 51 102
0 51 102
0 51 102
0 51 102
0 51 102
0 51 102
0 51 102
0 51 102
0 51 102
0 51 102
0 51 102
0 51 102
0 51 102
0 51 102
0 40 80
0 0 0
10 10 10
11 11 11
0 0 0
0 40 80
0 51 102
0 51 102
0 51 102
0 51 102
0 51 102
0 51 102
0 51 102
0 51 102
0 51 102
0 51 102
0 51 102
0 51 102
0 51 102
0 51 102
0 51 102
0 51 102
0 51 102
0 51 102
0 51 102
0 51 102
0 51 102
0 51 102
0 51 102
0 51 102
0 51 102
0 51 102
0 51 102
0 51 102
0 51 102
0 51 102
0 51 102
0 51 102
0 51 102
0 51 102
0 51 102
0 51 102
0 51 102
0 51 102
0 51 102
0 51 102
0 51 102
0 51 102
0 51 102
0 51 102
0 51 102
0 51 102
0 51 102
0 51 102
0 51 102
0 51 102
0 51 102
0 51 102
0 51 102
0 51 102
0 51 102
0 51 102
0 51 102
0 51 102
0 51 102
0 51 102
0 51 102
0 51 102
0 51 102
0 51 102
0 51 102
0 51 102
0 51 102
0 51 102
0 51 102
0 51 102
0 51 102
0 51 102
0 51 102
0 51 102
0 51 102
0 51 102
0 51 102
0 40 80
0 0 0
12 12 12
32 32 32
0 0 0
0 36 72
0 51 102
0 51 102
0 51 102
0 51 102
0 51 102
0 51 102
0 51 102
0 51 102
0 51 102
0 51 102
0 51 102
0 51 102
0 51 102
0 51 102
0 51 102
0 51 102
0 51 102
0 51 102
0 51 102
0 51 102
0 51 102
0 51 102
0 51 102
0 51 102
0 51 102
0 51 102
0 51 102
0 51 102
0 51 102
0 51 102
0 51 102
0 51 102
0 51 102
0 51 102
0 51 102
0 51 102
0 51 102
0 51 102
0 51 102
0 51 102
0 51 102
0 51 102
0 51 102
0 51 102
0 51 102
0 51 102
0 51 102
0 51 102
0 51 102
0 51 102
0 51 102
0 51 102
0 51 102
0 51 102
0 51 102
0 51 102
0 51 102
0 51 102
0 51 102
0 51 102
0 51 102
0 51 102
0 51 102
0 51 102
0 51 102
0 51 102
0 51 102
0 51 102
0 51 102
0 51 102
0 51 102
0 51 102
0 51 102
0 51 102
0 51 102
0 51 102
0 51 102
0 35 70
0 0 0
35 35 35
57 57 57
0 0 0
0 29 58
0 51 102
0 51 102
0 51 102
0 51 102
0 51 102
0 51 102
0 51 102
0 51 102
0 51 102
0 51 102
0 51 102
0 51 102
0 51 102
0 51 102
0 51 102
0 51 102
0 51 102
0 51 102
0 51 102
0 51 102
0 51 102
0 51 102
0 51 102
0 51 102
0 51 102
0 51 102
0 51 102
0 51 102
0 51 102
0 51 102
0 51 102
0 51 102
0 51 102
0 51 102
0 51 102
0 51 102
0 51 102
0 51 102
0 51 102
0 51 102
0 51 102
0 51 102
0 51 102
0 51 102
0 51 102
0 51 102
0 51 102
0 51 102
0 51 102
0 51 102
0 51 102
0 51 102
0 51 102
0 51 102
0 51 102
0 51 102
0 51 102
0 51 102
0 51 102
0 51 102
0 51 102
0 51 102
0 51 102
0 51 102
0 51 102
0 51 102
0 51 102
0 51 102
0 51 102
0 51 102
0 51 102
0 51 102
0 51 102
0 51 102
0 51 102
0 51 102
0 51 102
0 29 57
0 0 0
59 59 59
114 114 114
0 0 0
0 16 32
0 51 102
0 51 102
0 51 102
0 51 102
0 51 102
0 51 102
0 51 102
0 51 102
0 51 102
0 51 102
0 51 102
0 51 102
0 51 102
0 51 102
0 51 102
0 51 102
0 51 102
0 51 102
0 51 102
0 51 102
0 51 102
0 51 102
0 51 102
0 51 102
0 51 102
6 55 104
68 102 119
90 119 124
61 97 118
2 53 102
0 51 102
0 51 102
0 51 102
34 77 110
85 115 124
67 101 118
7 56 103
0 51 102
0 51 102
0 51 102
0 51 102
0 51 102
82 112 123
71 104 119
0 51 102
0 51 102
35 77 110
68 102 119
68 102 119
68 102 119
68 102 119
68 102 119
48 87 114
0 51 102
0 51 102
0 51 102
0 51 102
0 51 102
0 51 102
0 51 102
0 51 102
0 51 102
0 51 102
0 51 102
0 51 102
0 51 102
0 51 102
0 51 102
0 51 102
0 51 102
0 51 102
0 51 102
0 51 102
0 51 102
0 51 102
0 51 102
0 51 102
0 16 31
0 0 0
117 117 117
179 179 179
0 0 0
0 3 6
0 49 99
0 51 102
0 51 102
0 51 102
0 51 102
0 51 102
0 51 102
0 51 102
0 51 102
0 51 102
0 51 102
0 51 102
0 51 102
0 51 102
0 51 102
0 51 102
0 51 102
0 51 102
0 51 102
0 51 102
0 51 102
0 51 102
0 51 102
0 51 102
16 63 106
175 182 145
204 204 153
204 204 153
204 204 153
153 166 141
3 53 102
0 51 102
66 101 118
199 200 151
204 204 153
204 204 153
163 173 142
8 57 104
0 51 102
0 51 102
0 51 102
74 107 120
204 204 153
153 166 141
0 51 102
0 51 102
106 131 128
204 204 153
204 204 153
204 204 153
204 204 153
204 204 153
145 160 139
0 51 102
0 51 102
0 51 102
0 51 102
0 51 102
0 51 102
0 51 102
0 51 102
0 51 102
0 51 102
0 51 102
0 51 102
0 51 102
0 51 102
0 51 102
0 51 102
0 51 102
0 51 102
0 51 102
0 51 102
0 51 102
0 51 102
0 51 102
0 49 98
0 3 6
0 0 0
181 181 181
244 244 244
16 16 16
0 0 0
0 32 63
0 51 102
0 51 102
0 51 102
0 51 102
0 51 102
0 51 102
0 51 102
0 51 102
0 51 102
0 51 102
0 51 102
0 51 102
0 51 102
0 51 102
0 51 102
0 51 102
0 51 102
0 51 102
0 51 102
0 51 102
0 51 102
0 51 102
0 51 102
102 127 128
204 204 153
101 127 128
17 64 107
138 155 136
204 204 153
65 100 119
1 52 103
181 187 148
195 197 150
38 80 111
116 138 131
204 204 153
88 117 124
0 51 102
14 62 105
110 133 130
202 203 152
204 204 153
153 166 141
0 51 102
0 51 102
42 82 113
82 113 122
82 113 122
82 113 122
154 167 140
202 202 153
64 99 118
0 51 102
0 51 102
0 51 102
0 51 102
0 51 102
0 51 102
0 51 102
0 51 102
0 51 102
0 51 102
0 51 102
0 51 102
0 51 102
0 51 102
0 51 102
0 51 102
0 51 102
0 51 102
0 51 102
0 51 102
0 51 102
0 51 102
0 51 102
0 31 62
0 0 0
18 18 18
245 245 245
255 255 255
115 115 115
0 0 0
0 9 18
0 51 101
0 51 102
0 51 102
0 51 102
0 51 102
0 51 102
0 51 102
0 51 102
0 51 102
0 51 102
0 51 102
0 51 102
0 51 102
0 51 102
0 51 102
0 51 102
0 51 102
0 51 102
0 51 102
0 51 102
0 51 102
0 51 102
0 51 102
53 91 116
96 123 126
15 62 105
0 51 102
86 115 124
204 204 153
79 110 121
26 71 108
204 204 153
151 164 139
0 51 102
38 79 112
204 204 153
136 153 136
0 51 102
87 116 123
202 202 153
120 141 132
204 204 153
153 166 141
0 51 102
0 51 102
0 51 102
0 51 102
0 51 102
32 75 110
197 199 152
119 140 131
0 51 102
0 51 102
0 51 102
0 51 102
0 51 102
0 51 102
0 51 102
0 51 102
0 51 102
0 51 102
0 51 102
0 51 102
0 51 102
0 51 102
0 51 102
0 51 102
0 51 102
0 51 102
0 51 102
0 51 102
0 51 102
0 51 102
0 51 102
0 50 101
0 9 17
0 0 0
118 118 118
255 255 255
255 255 255
223 223 223
6 6 6
0 0 0
0 30 60
0 51 102
0 51 102
0 51 102
0 51 102
0 51 102
0 51 102
0 51 102
0 51 102
0 51 102
0 51 102
0 51 102
0 51 102
0 51 102
0 51 102
0 51 102
0 51 102
0 51 102
0 51 102
0 51 102
0 51 102
0 51 102
0 51 102
0 51 102
0 51 102
0 51 102
10 59 104
166 175 144
201 202 153
30 73 110
46 86 113
204 204 153
135 152 135
0 51 102
23 68 107
204 204 153
157 169 142
0 51 102
43 83 112
37 79 112
15 62 105
204 204 153
153 166 141
0 51 102
0 51 102
0 51 102
0 51 102
0 51 102
145 160 139
192 195 150
13 61 106
0 51 102
0 51 102
0 51 102
0 51 102
0 51 102
0 51 102
0 51 102
0 51 102
0 51 102
0 51 102
0 51 102
0 51 102
0 51 102
0 51 102
0 51 102
0 51 102
0 51 102
0 51 102
0 51 102
0 51 102
0 51 102
0 51 102
0 51 102
0 29 58
0 0 0
7 7 7
226 226 226
255 255 255
255 255 255
255 255 255
123 123 123
0 0 0
0 3 6
0 46 91
0 51 102
0 51 102
0 51 102
0 51 102
0 51 102
0 51 102
0 51 102
0 51 102
0 51 102
0 51 102
0 51 102
0 51 102
0 51 102
0 51 102
0 51 102
0 51 102
0 51 102
0 51 102
0 51 102
0 51 102
0 51 102
0 51 102
0 51 102
7 56 103
152 165 140
204 204 153
111 134 129
0 51 102
58 94 117
204 204 153
125 145 134
0 51 102
14 62 105
204 204 153
170 179 144
0 51 102
0 51 102
0 51 102
15 62 105
204 204 153
153 166 141
0 51 102
0 51 102
0 51 102
0 51 102
36 78 111
203 203 152
108 132 129
0 51 102
0 51 102
0 51 102
0 51 102
0 51 102
0 51 102
0 51 102
0 51 102
0 51 102
0 51 102
0 51 102
0 51 102
0 51 102
0 51 102
0 51 102
0 51 102
0 51 102
0 51 102
0 51 102
0 51 102
0 51 102
0 51 102
0 51 102
0 45 91
0 3 6
0 0 0
127 127 127
255 255 255
255 255 255
255 255 255
255 255 255
246 246 246
35 35 35
0 0 0
0 11 22
0 49 99
0 51 102
0 51 102
0 51 102
0 51 102
0 51 102
0 51 102
0 51 102
0 51 102
0 51 102
0 51 102
0 51 102
0 51 102
0 51 102
0 51 102
0 51 102
0 51 102
0 51 102
0 51 102
0 51 102
0 51 102
0 51 102
7 56 103
149 163 140
204 204 153
129 148 135
2 53 102
0 51 102
43 83 112
204 204 153
138 155 136
0 51 102
27 71 108
204 204 153
153 166 141
0 51 102
0 51 102
0 51 102
15 62 105
204 204 153
153 166 141
0 51 102
0 51 102
0 51 102
0 51 102
114 137 130
204 204 153
34 77 110
0 51 102
0 51 102
0 51 102
0 51 102
0 51 102
0 51 102
0 51 102
0 51 102
0 51 102
0 51 102
0 51 102
0 51 102
0 51 102
0 51 102
0 51 102
0 51 102
0 51 102
0 51 102
0 51 102
0 51 102
0 51 102
0 51 102
0 49 98
0 11 21
0 0 0
37 37 37
247 247 247
255 255 255
255 255 255
255 255 255
255 255 255
255 255 255
203 203 203
9 9 9
0 0 0
0 18 37
0 51 102
0 51 102
0 51 102
0 51 102
0 51 102
0 51 102
0 51 102
0 51 102
0 51 102
0 51 102
0 51 102
0 51 102
0 51 102
0 51 102
0 51 102
0 51 102
0 51 102
0 51 102
0 51 102
0 51 102
1 52 103
142 157 138
204 204 153
125 145 134
2 53 102
0 51 102
0 51 102
22 67 108
204 204 153
156 168 141
0 51 102
46 86 113
204 204 153
130 148 135
0 51 102
0 51 102
0 51 102
15 62 105
204 204 153
153 166 141
0 51 102
0 51 102
0 51 102
0 51 102
173 181 146
178 185 146
0 51 102
0 51 102
0 51 102
0 51 102
0 51 102
0 51 102
0 51 102
0 51 102
0 51 102
0 51 102
0 51 102
0 51 102
0 51 102
0 51 102
0 51 102
0 51 102
0 51 102
0 51 102
0 51 102
0 51 102
0 51 102
0 51 102
0 51 101
0 18 36
0 0 0
10 10 10
205 205 205
255 255 255
255 255 255
255 255 255
255 255 255
255 255 255
255 255 255
255 255 255
171 171 171
1 1 1
0 0 0
0 18 36
0 50 100
0 51 102
0 51 102
0 51 102
0 51 102
0 51 102
0 51 102
0 51 102
0 51 102
0 51 102
0 51 102
0 51 102
0 51 102
0 51 102
0 51 102
0 51 102
0 51 102
0 51 102
0 51 102
82 113 122
204 204 153
201 202 153
125 145 134
122 142 133
122 142 133
56 93 116
0 51 102
169 178 145
202 202 153
80 111 122
143 158 137
204 204 153
70 103 120
0 51 102
0 51 102
0 51 102
15 62 105
204 204 153
153 166 141
0 51 102
0 51 102
0 51 102
13 61 106
204 204 153
136 153 136
0 51 102
0 51 102
0 51 102
0 51 102
0 51 102
0 51 102
0 51 102
0 51 102
0 51 102
0 51 102
0 51 102
0 51 102
0 51 102
0 51 102
0 51 102
0 51 102
0 51 102
0 51 102
0 51 102
0 51 102
0 51 102
0 50 101
0 19 38
0 0 0
1 1 1
166 166 166
255 255 255
255 255 255
255 255 255
255 255 255
255 255 255
255 255 255
255 255 255
255 255 255
255 255 255
138 138 138
0 0 0
0 0 0
0 18 36
0 49 99
0 51 102
0 51 102
0 51 102
0 51 102
0 51 102
0 51 102
0 51 102
0 51 102
0 51 102
0 51 102
0 51 102
0 51 102
0 51 102
0 51 102
0 51 102
0 51 102
0 51 102
162 172 143
204 204 153
204 204 153
204 204 153
204 204 153
204 204 153
94 122 125
0 51 102
38 79 112
182 188 147
204 204 153
204 204 153
128 147 134
2 53 102
0 51 102
0 51 102
0 51 102
15 62 105
204 204 153
153 166 141
0 51 102
0 51 102
0 51 102
35 77 110
204 204 153
114 137 130
0 51 102
0 51 102
0 51 102
0 51 102
0 51 102
0 51 102
0 51 102
0 51 102
0 51 102
0 51 102
0 51 102
0 51 102
0 51 102
0 51 102
0 51 102
0 51 102
0 51 102
0 51 102
0 51 102
0 51 102
0 49 99
0 17 35
0 0 0
1 1 1
141 141 141
255 255 255
255 255 255
255 255 255
255 255 255
255 255 255
255 255 255
255 255 255
255 255 255
255 255 255
255 255 255
255 255 255
151 151 151
1 1 1
0 0 0
0 10 20
0 44 89
0 51 102
0 51 102
0 51 102
0 51 102
0 51 102
0 51 102
0 51 102
0 51 102
0 51 102
0 51 102
0 51 102
0 51 102
0 51 102
0 51 102
0 51 102
0 51 102
25 70 109
27 71 108
27 71 108
27 71 108
27 71 108
27 71 108
13 61 106
0 51 102
0 51 102
5 55 104
42 83 112
25 70 109
0 51 102
0 51 102
0 51 102
0 51 102
0 51 102
2 52 103
27 71 108
21 67 108
0 51 102
0 51 102
0 51 102
6 55 104
27 71 108
14 61 106
0 51 102
0 51 102
0 51 102
0 51 102
0 51 102
0 51 102
0 51 102
0 51 102
0 51 102
0 51 102
0 51 102
0 51 102
0 51 102
0 51 102
0 51 102
0 51 102
0 51 102
0 51 102
0 51 102
0 45 90
0 11 22
0 0 0
1 1 1
144 144 144
255 255 255
255 255 255
255 255 255
255 255 255
255 255 255
255 255 255
255 255 255
255 255 255
255 255 255
255 255 255
255 255 255
255 255 255
255 255 255
164 164 164
9 9 9
0 0 0
0 4 8
0 35 69
0 51 102
0 51 102
0 51 102
0 51 102
0 51 102
0 51 102
0 51 102
0 51 102
0 51 102
0 51 102
0 51 102
0 51 102
0 51 102
0 51 102
0 51 102
0 51 102
0 51 102
0 51 102
0 51 102
0 51 102
0 51 102
0 51 102
0 51 102
0 51 102
0 51 102
0 51 102
0 51 102
0 51 102
0 51 102
0 51 102
0 51 102
0 51 102
0 51 102
0 51 102
0 51 102
0 51 102
0 51 102
0 51 102
0 51 102
0 51 102
0 51 102
0 51 102
0 51 102
0 51 102
0 51 102
0 51 102
0 51 102
0 51 102
0 51 102
0 51 102
0 51 102
0 51 102
0 51 102
0 51 102
0 51 102
0 51 102
0 51 102
0 51 102
0 51 102
0 34 68
0 4 8
0 0 0
10 10 10
165 165 165
255 255 255
255 255 255
255 255 255
255 255 255
255 255 255
255 255 255
255 255 255
255 255 255
255 255 255
255 255 255
255 255 255
255 255 255
255 255 255
255 255 255
255 255 255
207 207 207
33 33 33
0 0 0
0 0 0
0 17 34
0 46 93
0 51 102
0 51 102
0 51 102
0 51 102
0 51 102
0 51 102
0 51 102
0 51 102
0 51 102
0 51 102
0 51 102
0 51 102
0 51 102
0 51 102
0 51 102
0 51 102
0 51 102
0 51 102
0 51 102
0 51 102
0 51 102
0 51 102
0 51 102
0 51 102
0 51 102
0 51 102
0 51 102
0 51 102
0 51 102
0 51 102
0 51 102
0 51 102
0 51 102
0 51 102
0 51 102
0 51 102
0 51 102
0 51 102
0 51 102
0 51 102
0 51 102
0 51 102
0 51 102
0 51 102
0 51 102
0 51 102
0 51 102
0 51 102
0 51 102
0 51 102
0 51 102
0 51 102
0 51 102
0 51 102
0 51 102
0 46 92
0 16 33
0 0 0
0 0 0
34 34 34
208 208 208
255 255 255
255 255 255
255 255 255
255 255 255
255 255 255
255 255 255
255 255 255
255 255 255
255 255 255
255 255 255
255 255 255
255 255 255
255 255 255
255 255 255
255 255 255
255 255 255
255 255 255
239 239 239
97 97 97
1 1 1
0 0 0
0 3 6
0 26 52
0 49 98
0 51 102
0 51 102
0 51 102
0 51 102
0 51 102
0 51 102
0 51 102
0 51 102
0 51 102
0 51 102
0 51 102
0 51 102
0 51 102
0 51 102
0 51 102
0 51 102
0 51 102
0 51 102
0 51 102
0 51 102
0 51 102
0 51 102
0 51 102
0 51 102
0 51 102
0 51 102
0 51 102
0 51 102
0 51 102
0 51 102
0 51 102
0 51 102
0 51 102
0 51 102
0 51 102
0 51 102
0 51 102
0 51 102
0 51 102
0 51 102
0 51 102
0 51 102
0 51 102
0 51 102
0 51 102
0 51 102
0 51 102
0 51 102
0 51 102
0 51 102
0 51 102
0 49 97
0 26 52
0 3 6
0 0 0
1 1 1
97 97 97
239 239 239
255 255 255
255 255 255
255 255 255
255 255 255
255 255 255
255 255 255
255 255 255
255 255 255
255 255 255
255 255 255
255 255 255
255 255 255
255 255 255
255 255 255
255 255 255
255 255 255
255 255 255
255 255 255
255 255 255
255 255 255
185 185 185
32 32 32
0 0 0
0 0 0
0 5 10
0 29 58
0 48 97
0 51 102
0 51 102
0 51 102
0 51 102
0 51 102
0 51 102
0 51 102
0 51 102
0 51 102
0 51 102
0 51 102
0 51 102
0 51 102
0 51 102
0 51 102
0 51 102
0 51 102
0 51 102
0 51 102
0 51 102
0 51 102
0 51 102
0 51 102
0 51 102
0 51 102
0 51 102
0 51 102
0 51 102
0 51 102
0 51 102
0 51 102
0 51 102
0 51 102
0 51 102
0 51 102
0 51 102
0 51 102
0 51 102
0 51 102
0 51 102
0 51 102
0 51 102
0 51 102
0 51 102
0 51 102
0 51 102
0 51 102
0 48 96
0 28 57
0 5 9
0 0 0
0 0 0
33 33 33
185 185 185
255 255 255
255 255 255
255 255 255
255 255 255
255 255 255
255 255 255
255 255 255
255 255 255
255 255 255
255 255 255
255 255 255
255 255 255
255 255 255
255 255 255
255 255 255
255 255 255
255 255 255
255 255 255
255 255 255
255 255 255
255 255 255
255 255 255
255 255 255
247 247 247
141 141 141
19 19 19
0 0 0
0 0 0
0 3 6
0 23 46
0 44 89
0 51 102
0 51 102
0 51 102
0 51 102
0 51 102
0 51 102
0 51 102
0 51 102
0 51 102
0 51 102
0 51 102
0 51 102
0 51 102
0 51 102
0 51 102
0 51 102
0 51 102
0 51 102
0 51 102
0 51 102
0 51 102
0 51 102
0 51 102
0 51 102
0 51 102
0 51 102
0 51 102
0 51 102
0 51 102
0 51 102
0 51 102
0 51 102
0 51 102
0 51 102
0 51 102
0 51 102
0 51 102
0 51 102
0 51 102
0 51 102
0 51 102
0 51 102
0 51 102
0 44 88
0 23 46
0 3 6
0 0 0
0 0 0
19 19 19
141 141 141
248 248 248
255 255 255
255 255 255
255 255 255
255 255 255
255 255 255
255 255 255
255 255 255
255 255 255
255 255 255
255 255 255
255 255 255
255 255 255
255 255 255
255 255 255
255 255 255
255 255 255
255 255 255
255 255 255
255 255 255
255 255 255
255 255 255
255 255 255
255 255 255
255 255 255
255 255 255
255 255 255
240 240 240
128 128 128
22 22 22
0 0 0
0 0 0
0 0 0
0 12 24
0 30 61
0 47 95
0 51 102
0 51 102
0 51 102
0 51 102
0 51 102
0 51 102
0 51 102
0 51 102
0 51 102
0 51 102
0 51 102
0 51 102
0 51 102
0 51 102
0 51 102
0 51 102
0 51 102
0 51 102
0 51 102
0 51 102
0 51 102
0 51 102
0 51 102
0 51 102
0 51 102
0 51 102
0 51 102
0 51 102
0 51 102
0 51 102
0 51 102
0 51 102
0 51 102
0 51 102
0 51 102
0 51 102
0 51 102
0 47 95
0 30 60
0 12 24
0 0 0
0 0 0
0 0 0
22 22 22
129 129 129
240 240 240
255 255 255
255 255 255
255 255 255
255 255 255
255 255 255
255 255 255
255 255 255
255 255 255
255 255 255
255 255 255
255 255 255
255 255 255
255 255 255
255 255 255
255 255 255
255 255 255
255 255 255
255 255 255
255 255 255
255 255 255
255 255 255
255 255 255
255 255 255
255 255 255
255 255 255
255 255 255
255 255 255
255 255 255
255 255 255
255 255 255
247 247 247
155 155 155
45 45 45
0 0 0
0 0 0
0 0 0
0 1 2
0 13 25
0 27 54
0 42 83
0 51 102
0 51 102
0 51 102
0 51 102
0 51 102
0 51 102
0 51 102
0 51 102
0 51 102
0 51 102
0 51 102
0 51 102
0 51 102
0 51 102
0 51 102
0 51 102
0 51 102
0 51 102
0 51 102
0 51 102
0 51 102
0 51 102
0 51 102
0 51 102
0 51 102
0 51 102
0 51 102
0 51 102
0 51 102
0 51 102
0 51 102
0 42 83
0 27 54
0 12 25
0 1 2
0 0 0
0 0 0
0 0 0
46 46 46
156 156 156
247 247 247
255 255 255
255 255 255
255 255 255
255 255 255
255 255 255
255 255 255
255 255 255
255 255 255
255 255 255
255 255 255
255 255 255
255 255 255
255 255 255
255 255 255
255 255 255
255 255 255
255 255 255
255 255 255
255 255 255
255 255 255
255 255 255
255 255 255
255 255 255
255 255 255
255 255 255
255 255 255
255 255 255
255 255 255
255 255 255
255 255 255
255 255 255
255 255 255
255 255 255
255 255 255
255 255 255
206 206 206
114 114 114
25 25 25
0 0 0
0 0 0
0 0 0
0 0 0
0 4 7
0 15 29
0 26 51
0 36 73
0 45 90
0 51 102
0 51 102
0 51 102
0 51 102
0 51 102
0 51 102
0 51 102
0 51 102
0 51 102
0 51 102
0 51 102
0 51 102
0 51 102
0 51 102
0 51 102
0 51 102
0 51 102
0 51 102
0 51 102
0 51 102
0 51 102
0 45 90
0 36 73
0 26 51
0 15 29
0 4 7
0 0 0
0 0 0
0 0 0
0 0 0
26 26 26
115 115 115
207 207 207
255 255 255
255 255 255
255 255 255
255 255 255
255 255 255
255 255 255
255 255 255
255 255 255
255 255 255
255 255 255
255 255 255
255 255 255
255 255 255
255 255 255
255 255 255
255 255 255
255 255 255
255 255 255
255 255 255
255 255 255
255 255 255
255 255 255
255 255 255
255 255 255
255 255 255
255 255 255
255 255 255
255 255 255
255 255 255
255 255 255
255 255 255
255 255 255
255 255 255
255 255 255
255 255 255
255 255 255
255 255 255
255 255 255
255 255 255
255 255 255
252 252 252
197 197 197
124 124 124
51 51 51
1 1 1
0 0 0
0 0 0
0 0 0
0 0 0
0 0 0
0 2 4
0 10 20
0 17 34
0 22 44
0 26 53
0 31 63
0 35 71
0 37 75
0 38 76
0 41 82
0 41 82
0 41 82
0 38 76
0 37 75
0 35 71
0 31 63
0 26 52
0 22 44
0 17 34
0 10 19
0 2 4
0 0 0
0 0 0
0 0 0
0 0 0
0 0 0
2 2 2
52 52 52
125 125 125
198 198 198
252 252 252
255 255 255
255 255 255
255 255 255
255 255 255
255 255 255
255 255 255
255 255 255
255 255 255
255 255 255
255 255 255
255 255 255
255 255 255
255 255 255
255 255 255
255 255 255
255 255 255
255 255 255
255 255 255
255 255 255
255 255 255
255 255 255
255 255 255
255 255 255
255 255 255
255 255 255
255 255 255
255 255 255
255 255 255
255 255 255
255 255 255
255 255 255
255 255 255
255 255 255
255 255 255
255 255 255
255 255 255
255 255 255
255 255 255
255 255 255
255 255 255
255 255 255
255 255 255
255 255 255
255 255 255
255 255 255
255 255 255
234 234 234
178 178 178
123 123 123
68 68 68
16 16 16
0 0 0
0 0 0
0 0 0
0 0 0
0 0 0
0 0 0
0 0 0
0 0 0
0 0 0
0 0 0
0 0 0
0 0 0
0 0 0
0 0 0
0 0 0
0 0 0
0 0 0
0 0 0
0 0 0
0 0 0
0 0 0
0 0 0
0 0 0
18 18 18
70 70 70
124 124 124
179 179 179
234 234 234
255 255 255
255 255 255
255 255 255
255 255 255
255 255 255
255 255 255
255 255 255
255 255 255
255 255 255
255 255 255
255 255 255
255 255 255
255 255 255
255 255 255
255 255 255
255 255 255
255 255 255
255 255 255
255 255 255
255 255 255
255 255 255
255 255 255
255 255 255
255 255 255
255 255 255
255 255 255
255 255 255
255 255 255
255 255 255
255 255 255
255 255 255
255 255 255
255 255 255
255 255 255
255 255 255
255 255 255
255 255 255
255 255 255
255 255 255
255 255 255
255 255 255
255 255 255
255 255 255
255 255 255
255 255 255
255 255 255
255 255 255
255 255 255
255 255 255
255 255 255
255 255 255
255 255 255
255 255 255
255 255 255
255 255 255
233 233 233
193 193 193
154 154 154
121 121 121
96 96 96
74 74 74
50 50 50
34 34 34
19 19 19
17 17 17
6 6 6
0 0 0
7 7 7
17 17 17
20 20 20
34 34 34
50 50 50
75 75 75
96 96 96
121 121 121
155 155 155
194 194 194
234 234 234
255 255 255
255 255 255
255 255 255
255 255 255
255 255 255
255 255 255
255 255 255
255 255 255
255 255 255
255 255 255
255 255 255
255 255 255
255 255 255
255 255 255
255 255 255
255 255 255
255 255 255
255 255 255
255 255 255
255 255 255
255 255 255
255 255 255
255 255 255
255 255 255
255 255 255
255 255 255
255 255 255
255 255 255
255 255 255
255 255 255
